<!DOCTYPE svg PUBLIC "-//W3C//DTD SVG 1.1//EN" "http://www.w3.org/Graphics/SVG/1.1/DTD/svg11.dtd">
<!-- Uploaded to: SVG Repo, www.svgrepo.com, Transformed by: SVG Repo Mixer Tools -->
<svg fill="#fff" width="800px" height="800px" viewBox="0 0 512 512" xmlns="http://www.w3.org/2000/svg" stroke="#fff">
<g id="SVGRepo_bgCarrier" stroke-width="0"/>
<g id="SVGRepo_tracerCarrier" stroke-linecap="round" stroke-linejoin="round"/>
<g id="SVGRepo_iconCarrier">
<title>ionicons-v5-j</title>
<path d="M160,136V240H313.37l-52.68-52.69a16,16,0,0,1,22.62-22.62l80,80a16,16,0,0,1,0,22.62l-80,80a16,16,0,0,1-22.62-22.62L313.37,272H160V376a56.06,56.06,0,0,0,56,56H424a56.06,56.06,0,0,0,56-56V136a56.06,56.06,0,0,0-56-56H216A56.06,56.06,0,0,0,160,136Z"/>
<path d="M48,240a16,16,0,0,0,0,32H160V240Z"/>
</g>
</svg>